<?xml version="1.0" standalone="no"?>
<!DOCTYPE svg PUBLIC "-//W3C//DTD SVG 20010904//EN"
 "http://www.w3.org/TR/2001/REC-SVG-20010904/DTD/svg10.dtd">
<svg version="1.0" xmlns="http://www.w3.org/2000/svg"
 width="1026.000000pt" height="1026.000000pt" viewBox="0 0 1026.000000 1026.000000"
 preserveAspectRatio="xMidYMid meet">
<metadata>
Created by potrace 1.11, written by Peter Selinger 2001-2013
</metadata>
<g transform="translate(0.000000,1026.000000) scale(0.100000,-0.100000)"
fill="#000000" stroke="none">
<path d="M20 5130 l0 -5110 5120 0 5120 0 0 5110 0 5110 -5120 0 -5120 0 0
-5110z m7000 1700 l0 -2450 -145 0 -145 0 0 -490 0 -490 -215 0 -215 0 0 490
0 490 -1125 0 -1125 0 0 -490 0 -490 -215 0 -215 0 0 490 0 490 -170 0 -170 0
0 2450 0 2450 1870 0 1870 0 0 -2450z m-3179 -4670 c57 -175 107 -316 111
-312 3 4 52 148 108 320 l102 312 69 0 c49 0 69 -4 68 -12 0 -7 -62 -195 -138
-418 l-138 -405 -74 -3 -74 -2 -141 420 -141 420 72 0 71 0 105 -320z m819
288 c18 -51 270 -801 270 -805 0 -2 -31 -3 -69 -3 l-70 0 -38 115 -38 116
-139 -3 -139 -3 -37 -110 -37 -110 -73 -3 c-56 -2 -71 0 -68 10 3 7 67 196
143 421 l138 407 72 0 73 0 12 -32z m450 -266 c0 -292 1 -300 23 -342 32 -61
65 -83 135 -88 90 -6 145 21 177 90 25 53 25 56 25 346 l0 292 71 0 71 0 -4
-307 c-5 -341 -7 -355 -73 -444 -23 -32 -52 -56 -92 -75 -52 -26 -68 -29 -153
-29 -153 1 -229 47 -289 175 l-26 55 -3 313 -3 312 70 0 71 0 0 -298z m790
-57 l0 -355 160 0 160 0 0 -65 0 -65 -230 0 -230 0 0 420 0 420 70 0 70 0 0
-355z m800 295 l0 -60 -110 0 -110 0 0 -360 0 -360 -70 0 -70 0 0 360 0 360
-110 0 -110 0 0 60 0 60 290 0 290 0 0 -60z"/>
<path d="M4531 2158 c-24 -73 -46 -139 -48 -145 -4 -10 18 -13 92 -13 87 0 96
2 91 18 -3 9 -25 75 -49 145 l-42 128 -44 -133z"/>
</g>
</svg>
